<?xml version="1.0" encoding="UTF-8" standalone="no"?>
<!-- Created with Inkscape (http://www.inkscape.org/) -->

<svg
   xmlns:dc="http://purl.org/dc/elements/1.1/"
   xmlns:cc="http://creativecommons.org/ns#"
   xmlns:rdf="http://www.w3.org/1999/02/22-rdf-syntax-ns#"
   xmlns:svg="http://www.w3.org/2000/svg"
   xmlns="http://www.w3.org/2000/svg"
   xmlns:sodipodi="http://sodipodi.sourceforge.net/DTD/sodipodi-0.dtd"
   xmlns:inkscape="http://www.inkscape.org/namespaces/inkscape"
   width="8.4666662mm"
   height="9.1920185mm"
   viewBox="0 0 29.999998 32.570144"
   id="svg2"
   version="1.1"
   inkscape:version="0.91 r13725"
   sodipodi:docname="ualogo_small_30.svg">
  <defs
     id="defs4" />
  <sodipodi:namedview
     id="base"
     pagecolor="#ffffff"
     bordercolor="#666666"
     borderopacity="1.0"
     inkscape:pageopacity="0.0"
     inkscape:pageshadow="2"
     inkscape:zoom="0.7"
     inkscape:cx="-46.346272"
     inkscape:cy="-45.976682"
     inkscape:document-units="px"
     inkscape:current-layer="layer1"
     showgrid="false"
     fit-margin-top="0"
     fit-margin-left="0"
     fit-margin-right="0"
     fit-margin-bottom="0"
     inkscape:window-width="1280"
     inkscape:window-height="1001"
     inkscape:window-x="1358"
     inkscape:window-y="-8"
     inkscape:window-maximized="1" />
  <metadata
     id="metadata7">
    <rdf:RDF>
      <cc:Work
         rdf:about="">
        <dc:format>image/svg+xml</dc:format>
        <dc:type
           rdf:resource="http://purl.org/dc/dcmitype/StillImage" />
        <dc:title></dc:title>
      </cc:Work>
    </rdf:RDF>
  </metadata>
  <g
     inkscape:label="Layer 1"
     inkscape:groupmode="layer"
     id="layer1"
     transform="translate(-297.35714,-488.96241)">
    <path
       style="fill:#50b301"
       d="m 300.51135,521.44581 c -1.27369,-0.39462 -2.43805,-1.4482 -2.88705,-2.61236 -0.25509,-0.66143 -0.26716,-1.22138 -0.26716,-12.39832 0,-11.60595 0.002,-11.71104 0.29519,-12.34357 0.62751,-1.3562 1.84622,-2.31912 3.12718,-2.47083 0.88762,-0.10513 0.80048,-0.17879 2.99178,2.52873 1.29166,1.59595 1.82102,2.14469 2.26222,2.34505 1.34402,0.61036 2.82891,0.0343 3.46521,-1.34443 0.22264,-0.48238 0.25923,-0.93547 0.26188,-3.24218 0.004,-3.18939 -0.025,-3.12727 1.28681,-2.79121 2.25905,0.57874 3.65005,2.26387 3.92252,4.75194 0.0967,0.88339 0.21205,1.26797 0.51031,1.70201 0.85477,1.24392 2.55662,1.52973 3.75635,0.63085 0.15437,-0.11566 1.0539,-1.16666 1.99897,-2.33556 0.94506,-1.1689 1.81525,-2.16247 1.93374,-2.20794 1.14089,-0.4378 3.18578,0.76486 3.89026,2.28797 0.29598,0.63991 0.29758,0.7079 0.29758,12.62936 l 0,11.98598 -0.31628,0.5919 c -0.49605,0.92831 -1.10781,1.53683 -1.97135,1.96089 l -0.79648,0.39113 -11.70561,0.0246 c -6.43808,0.0135 -11.86332,-0.0243 -12.05607,-0.084 z m 12.98631,-2.01331 c 0.16467,-0.0937 0.51163,-0.44934 0.77103,-0.79043 0.25939,-0.34109 0.74966,-0.76691 1.08947,-0.94626 0.59574,-0.31443 0.73513,-0.3261 3.89656,-0.3261 l 3.27872,0 0.34409,-0.3441 0.34409,-0.34409 0,-4.25088 c 0,-3.62049 -0.0324,-4.29709 -0.21822,-4.56245 -0.21526,-0.30732 -0.26428,-0.31157 -3.6006,-0.31157 -3.97078,0 -4.20581,0.0608 -5.16863,1.33601 -0.63757,0.84445 -0.74908,0.90699 -1.61734,0.90699 -0.80713,0 -1.06551,-0.14677 -1.5833,-0.89935 -0.2785,-0.4048 -0.67275,-0.73923 -1.15431,-0.9792 -0.72947,-0.36352 -0.74035,-0.36445 -4.26856,-0.36445 -3.02875,0 -3.5689,0.0317 -3.75753,0.2203 -0.19105,0.19105 -0.22029,0.81339 -0.22029,4.68831 0,4.45821 6e-4,4.4685 0.31157,4.68625 0.26179,0.18337 0.87061,0.21823 3.81088,0.21823 4.08196,0 4.35504,0.0669 5.22774,1.28169 0.26958,0.37523 0.59441,0.74311 0.72185,0.81751 0.32517,0.18983 1.43456,0.1673 1.79278,-0.0364 z"
       id="path4147"
       inkscape:connector-curvature="0" />
  </g>
</svg>
